<?xml version="1.0" encoding="UTF-8" standalone="no" ?>
<!DOCTYPE svg PUBLIC "-//W3C//DTD SVG 1.1//EN" "http://www.w3.org/Graphics/SVG/1.1/DTD/svg11.dtd">
<svg xmlns="http://www.w3.org/2000/svg" xmlns:xlink="http://www.w3.org/1999/xlink" version="1.1" width="1080" height="1080" viewBox="0 0 1080 1080" xml:space="preserve">
<desc>Created with Fabric.js 5.2.4</desc>
<defs>
</defs>
<g transform="matrix(1 0 0 1 540 540)" id="535189ac-78a5-475f-b07c-ddb6b68fe680"  >
</g>
<g transform="matrix(1 0 0 1 540 540)" id="30735baa-7b37-4329-a360-3fcbdf66dec1"  >
<rect style="stroke: none; stroke-width: 1; stroke-dasharray: none; stroke-linecap: butt; stroke-dashoffset: 0; stroke-linejoin: miter; stroke-miterlimit: 4; fill: rgb(255,255,255); fill-rule: nonzero; opacity: 1; visibility: hidden;" vector-effect="non-scaling-stroke"  x="-540" y="-540" rx="0" ry="0" width="1080" height="1080" />
</g>
<g transform="matrix(-1.23 0 0 -1.23 539.03 471.77)"  >
<g style="" vector-effect="non-scaling-stroke"   >
		<g transform="matrix(13.75 0 0 13.75 0.05 0.03)"  >
<path style="stroke: none; stroke-width: 1; stroke-dasharray: none; stroke-linecap: butt; stroke-dashoffset: 0; stroke-linejoin: miter; stroke-miterlimit: 4; fill: rgb(56,69,79); fill-rule: nonzero; opacity: 1;" vector-effect="non-scaling-stroke"  transform=" translate(-29.09, -29.1)" d="M 29.095 39.268 L 38.541 39.268 C 40.242 39.268 41.887 39.877 43.178999999999995 40.984 L 52.306999999999995 48.812000000000005 C 52.91799999999999 49.336000000000006 53.812 49.426 54.49099999999999 48.995000000000005 C 63.986999999999995 42.98500000000001 52.468999999999994 19.267000000000003 50.18599999999999 14.961000000000006 C 49.943999999999996 14.504000000000005 49.544999999999995 12.025000000000006 49.059999999999995 11.848000000000006 L 41.38399999999999 9.057000000000006 C 40.71099999999999 8.812000000000006 39.961999999999996 8.902000000000006 39.36699999999999 9.299000000000007 C 39.36699999999999 9.299000000000007 37.20299999999999 10.682000000000006 36.71799999999999 10.682000000000006 L 28.29299999999999 10.682000000000006 L 21.74399999999999 10.682000000000006 C 21.25899999999999 10.682000000000006 18.82299999999999 9.299000000000007 18.82299999999999 9.299000000000007 C 18.22699999999999 8.902000000000006 17.47799999999999 8.812000000000006 16.80599999999999 9.057000000000006 L 9.13 11.848 C 8.644 12.025 8.246 14.504000000000001 8.004000000000001 14.961 C 5.721 19.267 -5.797 42.985 3.699 48.995 C 4.379 49.425 5.273 49.335 5.883 48.812 L 15.011 40.983999999999995 C 16.303 39.876999999999995 17.948 39.267999999999994 19.649 39.267999999999994 L 29.095 39.267999999999994 z" stroke-linecap="round" />
</g>
		<g transform="matrix(13.75 0 0 13.75 105.74 16.13)"  >
<circle style="stroke: none; stroke-width: 1; stroke-dasharray: none; stroke-linecap: butt; stroke-dashoffset: 0; stroke-linejoin: miter; stroke-miterlimit: 4; fill: rgb(84,106,121); fill-rule: nonzero; opacity: 1;" vector-effect="non-scaling-stroke"  cx="0" cy="0" r="4" />
</g>
		<g transform="matrix(13.75 0 0 13.75 -210.47 -121.35)"  >
<circle style="stroke: none; stroke-width: 1; stroke-dasharray: none; stroke-linecap: butt; stroke-dashoffset: 0; stroke-linejoin: miter; stroke-miterlimit: 4; fill: rgb(84,106,121); fill-rule: nonzero; opacity: 1;" vector-effect="non-scaling-stroke"  cx="0" cy="0" r="4" />
</g>
		<g transform="matrix(13.75 0 0 13.75 201.98 -176.35)"  >
<circle style="stroke: none; stroke-width: 1; stroke-dasharray: none; stroke-linecap: butt; stroke-dashoffset: 0; stroke-linejoin: miter; stroke-miterlimit: 4; fill: rgb(235,186,22); fill-rule: nonzero; opacity: 1;" vector-effect="non-scaling-stroke"  cx="0" cy="0" r="2" />
</g>
		<g transform="matrix(13.75 0 0 13.75 146.99 -121.35)"  >
<circle style="stroke: none; stroke-width: 1; stroke-dasharray: none; stroke-linecap: butt; stroke-dashoffset: 0; stroke-linejoin: miter; stroke-miterlimit: 4; fill: rgb(115,131,191); fill-rule: nonzero; opacity: 1;" vector-effect="non-scaling-stroke"  cx="0" cy="0" r="2" />
</g>
		<g transform="matrix(13.75 0 0 13.75 256.97 -121.35)"  >
<circle style="stroke: none; stroke-width: 1; stroke-dasharray: none; stroke-linecap: butt; stroke-dashoffset: 0; stroke-linejoin: miter; stroke-miterlimit: 4; fill: rgb(215,90,74); fill-rule: nonzero; opacity: 1;" vector-effect="non-scaling-stroke"  cx="0" cy="0" r="2" />
</g>
		<g transform="matrix(13.75 0 0 13.75 201.98 -66.36)"  >
<circle style="stroke: none; stroke-width: 1; stroke-dasharray: none; stroke-linecap: butt; stroke-dashoffset: 0; stroke-linejoin: miter; stroke-miterlimit: 4; fill: rgb(97,184,114); fill-rule: nonzero; opacity: 1;" vector-effect="non-scaling-stroke"  cx="0" cy="0" r="2" />
</g>
		<g transform="matrix(13.75 0 0 13.75 -4.24 -225.44)"  >
<path style="stroke: none; stroke-width: 1; stroke-dasharray: none; stroke-linecap: butt; stroke-dashoffset: 0; stroke-linejoin: miter; stroke-miterlimit: 4; fill: rgb(175,182,187); fill-rule: nonzero; opacity: 1;" vector-effect="non-scaling-stroke"  transform=" translate(-28.79, -12.7)" d="M 31.786 11.712 C 31.786 11.52 31.767000000000003 11.331999999999999 31.732000000000003 11.151 C 31.697000000000003 10.97 31.621000000000002 10.813 31.517000000000003 10.682 C 30.346000000000004 10.682 29.437000000000005 10.682 29.038000000000004 10.682 C 28.953000000000003 10.689 28.873000000000005 10.712 28.787000000000003 10.712 C 28.700000000000003 10.712 28.62 10.69 28.536 10.682 C 28.523 10.682 28.294 10.682 28.294 10.682 L 26.047 10.682 C 25.959 10.796000000000001 25.889 10.927 25.855 11.082 C 25.768 11.48 25.761 11.909 25.855 12.353000000000002 C 26.103 13.523000000000001 27.080000000000002 14.466000000000001 28.259 14.667000000000002 C 30.148 14.989 31.786 13.542 31.786 11.712 z" stroke-linecap="round" />
</g>
		<g transform="matrix(13.75 0 0 13.75 -97.53 11.36)"  >
<path style="stroke: none; stroke-width: 1; stroke-dasharray: none; stroke-linecap: butt; stroke-dashoffset: 0; stroke-linejoin: miter; stroke-miterlimit: 4; fill: rgb(84,106,121); fill-rule: nonzero; opacity: 1;" vector-effect="non-scaling-stroke"  transform=" translate(-22, -29.92)" d="M 27.286 27.921 L 24 27.921 L 24 24.634999999999998 C 24 24.24 23.68 23.921 23.286 23.921 L 20.715 23.921 C 20.32 23.921 20.001 24.241 20.001 24.634999999999998 L 20.001 27.921 L 16.715 27.921 C 16.32 27.921 16.001 28.241 16.001 28.634999999999998 L 16.001 31.206 C 16.001 31.601 16.321 31.919999999999998 16.715 31.919999999999998 L 20 31.919999999999998 L 20 35.205999999999996 C 20 35.601 20.32 35.919999999999995 20.714 35.919999999999995 L 23.285 35.919999999999995 C 23.68 35.919999999999995 23.999 35.599999999999994 23.999 35.205999999999996 L 23.999 31.919999999999995 L 27.285 31.919999999999995 C 27.68 31.919999999999995 27.999 31.599999999999994 27.999 31.205999999999996 L 27.999 28.634999999999994 C 28 28.241 27.68 27.921 27.286 27.921 z" stroke-linecap="round" />
</g>
</g>
</g>
<g transform="matrix(1.23 0 0 1.23 540.97 656.39)"  >
<g style="" vector-effect="non-scaling-stroke"   >
		<g transform="matrix(13.75 0 0 13.75 0.05 0.03)"  >
<path style="stroke: none; stroke-width: 1; stroke-dasharray: none; stroke-linecap: butt; stroke-dashoffset: 0; stroke-linejoin: miter; stroke-miterlimit: 4; fill: rgb(56,69,79); fill-rule: nonzero; opacity: 1;" vector-effect="non-scaling-stroke"  transform=" translate(-29.09, -29.1)" d="M 29.095 39.268 L 38.541 39.268 C 40.242 39.268 41.887 39.877 43.178999999999995 40.984 L 52.306999999999995 48.812000000000005 C 52.91799999999999 49.336000000000006 53.812 49.426 54.49099999999999 48.995000000000005 C 63.986999999999995 42.98500000000001 52.468999999999994 19.267000000000003 50.18599999999999 14.961000000000006 C 49.943999999999996 14.504000000000005 49.544999999999995 12.025000000000006 49.059999999999995 11.848000000000006 L 41.38399999999999 9.057000000000006 C 40.71099999999999 8.812000000000006 39.961999999999996 8.902000000000006 39.36699999999999 9.299000000000007 C 39.36699999999999 9.299000000000007 37.20299999999999 10.682000000000006 36.71799999999999 10.682000000000006 L 28.29299999999999 10.682000000000006 L 21.74399999999999 10.682000000000006 C 21.25899999999999 10.682000000000006 18.82299999999999 9.299000000000007 18.82299999999999 9.299000000000007 C 18.22699999999999 8.902000000000006 17.47799999999999 8.812000000000006 16.80599999999999 9.057000000000006 L 9.13 11.848 C 8.644 12.025 8.246 14.504000000000001 8.004000000000001 14.961 C 5.721 19.267 -5.797 42.985 3.699 48.995 C 4.379 49.425 5.273 49.335 5.883 48.812 L 15.011 40.983999999999995 C 16.303 39.876999999999995 17.948 39.267999999999994 19.649 39.267999999999994 L 29.095 39.267999999999994 z" stroke-linecap="round" />
</g>
		<g transform="matrix(13.75 0 0 13.75 105.74 16.13)"  >
<circle style="stroke: none; stroke-width: 1; stroke-dasharray: none; stroke-linecap: butt; stroke-dashoffset: 0; stroke-linejoin: miter; stroke-miterlimit: 4; fill: rgb(84,106,121); fill-rule: nonzero; opacity: 1;" vector-effect="non-scaling-stroke"  cx="0" cy="0" r="4" />
</g>
		<g transform="matrix(13.75 0 0 13.75 -210.47 -121.35)"  >
<circle style="stroke: none; stroke-width: 1; stroke-dasharray: none; stroke-linecap: butt; stroke-dashoffset: 0; stroke-linejoin: miter; stroke-miterlimit: 4; fill: rgb(84,106,121); fill-rule: nonzero; opacity: 1;" vector-effect="non-scaling-stroke"  cx="0" cy="0" r="4" />
</g>
		<g transform="matrix(13.75 0 0 13.75 201.98 -176.35)"  >
<circle style="stroke: none; stroke-width: 1; stroke-dasharray: none; stroke-linecap: butt; stroke-dashoffset: 0; stroke-linejoin: miter; stroke-miterlimit: 4; fill: rgb(235,186,22); fill-rule: nonzero; opacity: 1;" vector-effect="non-scaling-stroke"  cx="0" cy="0" r="2" />
</g>
		<g transform="matrix(13.75 0 0 13.75 146.99 -121.35)"  >
<circle style="stroke: none; stroke-width: 1; stroke-dasharray: none; stroke-linecap: butt; stroke-dashoffset: 0; stroke-linejoin: miter; stroke-miterlimit: 4; fill: rgb(115,131,191); fill-rule: nonzero; opacity: 1;" vector-effect="non-scaling-stroke"  cx="0" cy="0" r="2" />
</g>
		<g transform="matrix(13.75 0 0 13.75 256.97 -121.35)"  >
<circle style="stroke: none; stroke-width: 1; stroke-dasharray: none; stroke-linecap: butt; stroke-dashoffset: 0; stroke-linejoin: miter; stroke-miterlimit: 4; fill: rgb(215,90,74); fill-rule: nonzero; opacity: 1;" vector-effect="non-scaling-stroke"  cx="0" cy="0" r="2" />
</g>
		<g transform="matrix(13.75 0 0 13.75 201.98 -66.36)"  >
<circle style="stroke: none; stroke-width: 1; stroke-dasharray: none; stroke-linecap: butt; stroke-dashoffset: 0; stroke-linejoin: miter; stroke-miterlimit: 4; fill: rgb(97,184,114); fill-rule: nonzero; opacity: 1;" vector-effect="non-scaling-stroke"  cx="0" cy="0" r="2" />
</g>
		<g transform="matrix(13.75 0 0 13.75 -4.24 -225.44)"  >
<path style="stroke: none; stroke-width: 1; stroke-dasharray: none; stroke-linecap: butt; stroke-dashoffset: 0; stroke-linejoin: miter; stroke-miterlimit: 4; fill: rgb(175,182,187); fill-rule: nonzero; opacity: 1;" vector-effect="non-scaling-stroke"  transform=" translate(-28.79, -12.7)" d="M 31.786 11.712 C 31.786 11.52 31.767000000000003 11.331999999999999 31.732000000000003 11.151 C 31.697000000000003 10.97 31.621000000000002 10.813 31.517000000000003 10.682 C 30.346000000000004 10.682 29.437000000000005 10.682 29.038000000000004 10.682 C 28.953000000000003 10.689 28.873000000000005 10.712 28.787000000000003 10.712 C 28.700000000000003 10.712 28.62 10.69 28.536 10.682 C 28.523 10.682 28.294 10.682 28.294 10.682 L 26.047 10.682 C 25.959 10.796000000000001 25.889 10.927 25.855 11.082 C 25.768 11.48 25.761 11.909 25.855 12.353000000000002 C 26.103 13.523000000000001 27.080000000000002 14.466000000000001 28.259 14.667000000000002 C 30.148 14.989 31.786 13.542 31.786 11.712 z" stroke-linecap="round" />
</g>
		<g transform="matrix(13.75 0 0 13.75 -97.53 11.36)"  >
<path style="stroke: none; stroke-width: 1; stroke-dasharray: none; stroke-linecap: butt; stroke-dashoffset: 0; stroke-linejoin: miter; stroke-miterlimit: 4; fill: rgb(84,106,121); fill-rule: nonzero; opacity: 1;" vector-effect="non-scaling-stroke"  transform=" translate(-22, -29.92)" d="M 27.286 27.921 L 24 27.921 L 24 24.634999999999998 C 24 24.24 23.68 23.921 23.286 23.921 L 20.715 23.921 C 20.32 23.921 20.001 24.241 20.001 24.634999999999998 L 20.001 27.921 L 16.715 27.921 C 16.32 27.921 16.001 28.241 16.001 28.634999999999998 L 16.001 31.206 C 16.001 31.601 16.321 31.919999999999998 16.715 31.919999999999998 L 20 31.919999999999998 L 20 35.205999999999996 C 20 35.601 20.32 35.919999999999995 20.714 35.919999999999995 L 23.285 35.919999999999995 C 23.68 35.919999999999995 23.999 35.599999999999994 23.999 35.205999999999996 L 23.999 31.919999999999995 L 27.285 31.919999999999995 C 27.68 31.919999999999995 27.999 31.599999999999994 27.999 31.205999999999996 L 27.999 28.634999999999994 C 28 28.241 27.68 27.921 27.286 27.921 z" stroke-linecap="round" />
</g>
</g>
</g>
<g transform="matrix(1.82 0 0 1.82 543 385.6)" id="24d04fa2-c294-49d1-b945-cbe954f6d0d0"  >
<rect style="stroke: rgb(0,0,0); stroke-width: 0; stroke-dasharray: none; stroke-linecap: butt; stroke-dashoffset: 0; stroke-linejoin: miter; stroke-miterlimit: 4; fill: rgb(56,69,79); fill-rule: nonzero; opacity: 1;" vector-effect="non-scaling-stroke"  x="-33.085" y="-33.085" rx="0" ry="0" width="66.17" height="66.17" />
</g>
</svg>